<?xml version="1.0" encoding="UTF-8" standalone="no"?>
<!DOCTYPE svg PUBLIC "-//W3C//DTD SVG 1.1//EN"
 "http://www.w3.org/Graphics/SVG/1.1/DTD/svg11.dtd">
<!-- Generated by graphviz version 2.47.0 (20210316.0004)
 -->
<!-- Title: dbml Pages: 1 -->
<svg width="2510pt" height="2012pt"
 viewBox="0.00 0.00 2510.26 2012.20" xmlns="http://www.w3.org/2000/svg" xmlns:xlink="http://www.w3.org/1999/xlink">
<g id="graph0" class="graph" transform="scale(1 1) rotate(0) translate(4 2008.2)">
<title>dbml</title>
<!-- equipment -->
<g id="equipment" class="node">
<title>equipment</title>
<ellipse fill="none" stroke="black" stroke-width="0" cx="1541.37" cy="-257.39" rx="281.36" ry="257.27"/>
<polygon fill="#1d71b8" stroke="transparent" points="1344.37,-377.39 1344.37,-437.39 1738.37,-437.39 1738.37,-377.39 1344.37,-377.39"/>
<polygon fill="none" stroke="#29235c" points="1344.37,-377.39 1344.37,-437.39 1738.37,-437.39 1738.37,-377.39 1344.37,-377.39"/>
<text text-anchor="start" x="1404.43" y="-398.59" font-family="Helvetica,sans-Serif" font-weight="bold" font-size="32.00" fill="#ffffff"> &#160;&#160;&#160;&#160;&#160;&#160;equipment &#160;&#160;&#160;&#160;&#160;&#160;</text>
<polygon fill="#e7e2dd" stroke="transparent" points="1344.37,-317.39 1344.37,-377.39 1738.37,-377.39 1738.37,-317.39 1344.37,-317.39"/>
<polygon fill="none" stroke="#29235c" points="1344.37,-317.39 1344.37,-377.39 1738.37,-377.39 1738.37,-317.39 1344.37,-317.39"/>
<text text-anchor="start" x="1355.37" y="-338.59" font-family="Helvetica,sans-Serif" font-weight="bold" font-size="32.00" fill="#29235c">equipment_id</text>
<text text-anchor="start" x="1547.43" y="-338.59" font-family="Helvetica,sans-Serif" font-size="32.00" fill="#29235c"> &#160;&#160;&#160;</text>
<text text-anchor="start" x="1590.48" y="-338.59" font-family="Helvetica,sans-Serif" font-style="italic" font-size="32.00" fill="#29235c">integer</text>
<text text-anchor="start" x="1688.28" y="-338.59" font-family="Helvetica,sans-Serif" font-size="32.00" fill="#29235c"> </text>
<text text-anchor="start" x="1697.17" y="-338.59" font-family="Helvetica,sans-Serif" font-weight="bold" font-size="32.00" fill="#29235c">(!)</text>
<polygon fill="#e7e2dd" stroke="transparent" points="1344.37,-257.39 1344.37,-317.39 1738.37,-317.39 1738.37,-257.39 1344.37,-257.39"/>
<polygon fill="none" stroke="#29235c" points="1344.37,-257.39 1344.37,-317.39 1738.37,-317.39 1738.37,-257.39 1344.37,-257.39"/>
<text text-anchor="start" x="1354.99" y="-277.59" font-family="Helvetica,sans-Serif" font-size="32.00" fill="#29235c">equipment_name &#160;&#160;&#160;</text>
<text text-anchor="start" x="1637.04" y="-278.59" font-family="Helvetica,sans-Serif" font-style="italic" font-size="32.00" fill="#29235c">text</text>
<text text-anchor="start" x="1688.61" y="-278.59" font-family="Helvetica,sans-Serif" font-size="32.00" fill="#29235c"> </text>
<text text-anchor="start" x="1697.5" y="-278.59" font-family="Helvetica,sans-Serif" font-weight="bold" font-size="32.00" fill="#29235c">(!)</text>
<polygon fill="#e7e2dd" stroke="transparent" points="1344.37,-197.39 1344.37,-257.39 1738.37,-257.39 1738.37,-197.39 1344.37,-197.39"/>
<polygon fill="none" stroke="#29235c" points="1344.37,-197.39 1344.37,-257.39 1738.37,-257.39 1738.37,-197.39 1344.37,-197.39"/>
<text text-anchor="start" x="1355.37" y="-217.59" font-family="Helvetica,sans-Serif" font-size="32.00" fill="#29235c">rov_class &#160;&#160;&#160;</text>
<text text-anchor="start" x="1675.79" y="-218.59" font-family="Helvetica,sans-Serif" font-style="italic" font-size="32.00" fill="#29235c">text</text>
<polygon fill="#e7e2dd" stroke="transparent" points="1344.37,-137.39 1344.37,-197.39 1738.37,-197.39 1738.37,-137.39 1344.37,-137.39"/>
<polygon fill="none" stroke="#29235c" points="1344.37,-137.39 1344.37,-197.39 1738.37,-197.39 1738.37,-137.39 1344.37,-137.39"/>
<text text-anchor="start" x="1355.37" y="-157.59" font-family="Helvetica,sans-Serif" font-size="32.00" fill="#29235c">created_at &#160;&#160;&#160;</text>
<text text-anchor="start" x="1590.48" y="-158.59" font-family="Helvetica,sans-Serif" font-style="italic" font-size="32.00" fill="#29235c">integer</text>
<text text-anchor="start" x="1688.28" y="-158.59" font-family="Helvetica,sans-Serif" font-size="32.00" fill="#29235c"> </text>
<text text-anchor="start" x="1697.17" y="-158.59" font-family="Helvetica,sans-Serif" font-weight="bold" font-size="32.00" fill="#29235c">(!)</text>
<polygon fill="#e7e2dd" stroke="transparent" points="1344.37,-77.39 1344.37,-137.39 1738.37,-137.39 1738.37,-77.39 1344.37,-77.39"/>
<polygon fill="none" stroke="#29235c" points="1344.37,-77.39 1344.37,-137.39 1738.37,-137.39 1738.37,-77.39 1344.37,-77.39"/>
<text text-anchor="start" x="1355.37" y="-97.59" font-family="Helvetica,sans-Serif" font-size="32.00" fill="#29235c">tooling_id &#160;&#160;&#160;</text>
<text text-anchor="start" x="1629.57" y="-98.59" font-family="Helvetica,sans-Serif" font-style="italic" font-size="32.00" fill="#29235c">integer</text>
<polygon fill="none" stroke="#29235c" stroke-width="2" points="1343.37,-76.39 1343.37,-438.39 1739.37,-438.39 1739.37,-76.39 1343.37,-76.39"/>
</g>
<!-- tooling -->
<g id="tooling" class="node">
<title>tooling</title>
<ellipse fill="none" stroke="black" stroke-width="0" cx="2182.65" cy="-428.39" rx="319.72" ry="257.27"/>
<polygon fill="#1d71b8" stroke="transparent" points="1958.65,-548.39 1958.65,-608.39 2406.65,-608.39 2406.65,-548.39 1958.65,-548.39"/>
<polygon fill="none" stroke="#29235c" points="1958.65,-548.39 1958.65,-608.39 2406.65,-608.39 2406.65,-548.39 1958.65,-548.39"/>
<text text-anchor="start" x="2073.28" y="-569.59" font-family="Helvetica,sans-Serif" font-weight="bold" font-size="32.00" fill="#ffffff"> &#160;&#160;&#160;&#160;&#160;&#160;tooling &#160;&#160;&#160;&#160;&#160;&#160;</text>
<polygon fill="#e7e2dd" stroke="transparent" points="1958.65,-488.39 1958.65,-548.39 2406.65,-548.39 2406.65,-488.39 1958.65,-488.39"/>
<polygon fill="none" stroke="#29235c" points="1958.65,-488.39 1958.65,-548.39 2406.65,-548.39 2406.65,-488.39 1958.65,-488.39"/>
<text text-anchor="start" x="1969.65" y="-509.59" font-family="Helvetica,sans-Serif" font-weight="bold" font-size="32.00" fill="#29235c">tooling_id</text>
<text text-anchor="start" x="2106.58" y="-509.59" font-family="Helvetica,sans-Serif" font-size="32.00" fill="#29235c"> &#160;&#160;&#160;</text>
<text text-anchor="start" x="2258.76" y="-509.59" font-family="Helvetica,sans-Serif" font-style="italic" font-size="32.00" fill="#29235c">integer</text>
<text text-anchor="start" x="2356.56" y="-509.59" font-family="Helvetica,sans-Serif" font-size="32.00" fill="#29235c"> </text>
<text text-anchor="start" x="2365.45" y="-509.59" font-family="Helvetica,sans-Serif" font-weight="bold" font-size="32.00" fill="#29235c">(!)</text>
<polygon fill="#e7e2dd" stroke="transparent" points="1958.65,-428.39 1958.65,-488.39 2406.65,-488.39 2406.65,-428.39 1958.65,-428.39"/>
<polygon fill="none" stroke="#29235c" points="1958.65,-428.39 1958.65,-488.39 2406.65,-488.39 2406.65,-428.39 1958.65,-428.39"/>
<text text-anchor="start" x="1969.65" y="-448.59" font-family="Helvetica,sans-Serif" font-size="32.00" fill="#29235c">tooling_name &#160;&#160;&#160;</text>
<text text-anchor="start" x="2304.99" y="-449.59" font-family="Helvetica,sans-Serif" font-style="italic" font-size="32.00" fill="#29235c">text</text>
<text text-anchor="start" x="2356.56" y="-449.59" font-family="Helvetica,sans-Serif" font-size="32.00" fill="#29235c"> </text>
<text text-anchor="start" x="2365.45" y="-449.59" font-family="Helvetica,sans-Serif" font-weight="bold" font-size="32.00" fill="#29235c">(!)</text>
<polygon fill="#e7e2dd" stroke="transparent" points="1958.65,-368.39 1958.65,-428.39 2406.65,-428.39 2406.65,-368.39 1958.65,-368.39"/>
<polygon fill="none" stroke="#29235c" points="1958.65,-368.39 1958.65,-428.39 2406.65,-428.39 2406.65,-368.39 1958.65,-368.39"/>
<text text-anchor="start" x="1969.65" y="-388.59" font-family="Helvetica,sans-Serif" font-size="32.00" fill="#29235c">parent_tooling &#160;&#160;&#160;</text>
<text text-anchor="start" x="2344.08" y="-389.59" font-family="Helvetica,sans-Serif" font-style="italic" font-size="32.00" fill="#29235c">text</text>
<polygon fill="#e7e2dd" stroke="transparent" points="1958.65,-308.39 1958.65,-368.39 2406.65,-368.39 2406.65,-308.39 1958.65,-308.39"/>
<polygon fill="none" stroke="#29235c" points="1958.65,-308.39 1958.65,-368.39 2406.65,-368.39 2406.65,-308.39 1958.65,-308.39"/>
<text text-anchor="start" x="1969.65" y="-328.59" font-family="Helvetica,sans-Serif" font-size="32.00" fill="#29235c">description &#160;&#160;&#160;</text>
<text text-anchor="start" x="2344.08" y="-329.59" font-family="Helvetica,sans-Serif" font-style="italic" font-size="32.00" fill="#29235c">text</text>
<polygon fill="#e7e2dd" stroke="transparent" points="1958.65,-248.39 1958.65,-308.39 2406.65,-308.39 2406.65,-248.39 1958.65,-248.39"/>
<polygon fill="none" stroke="#29235c" points="1958.65,-248.39 1958.65,-308.39 2406.65,-308.39 2406.65,-248.39 1958.65,-248.39"/>
<text text-anchor="start" x="1969.64" y="-268.59" font-family="Helvetica,sans-Serif" font-size="32.00" fill="#29235c">measurement_metric &#160;&#160;&#160;</text>
<text text-anchor="start" x="2305.32" y="-269.59" font-family="Helvetica,sans-Serif" font-style="italic" font-size="32.00" fill="#29235c">text</text>
<text text-anchor="start" x="2356.89" y="-269.59" font-family="Helvetica,sans-Serif" font-size="32.00" fill="#29235c"> </text>
<text text-anchor="start" x="2365.79" y="-269.59" font-family="Helvetica,sans-Serif" font-weight="bold" font-size="32.00" fill="#29235c">(!)</text>
<polygon fill="none" stroke="#29235c" stroke-width="2" points="1957.65,-247.39 1957.65,-609.39 2407.65,-609.39 2407.65,-247.39 1957.65,-247.39"/>
</g>
<!-- equipment&#45;&gt;tooling -->
<!-- equipment&#45;&gt;tooling -->
<g id="edge2" class="edge">
<title>equipment:e&#45;&gt;tooling:w</title>
<path fill="none" stroke="#29235c" stroke-width="3" d="M1739.37,-107.39C1942.66,-107.39 1757.38,-504.46 1947.4,-518.03"/>
<polygon fill="#29235c" stroke="#29235c" stroke-width="3" points="1947.54,-521.54 1957.65,-518.39 1947.78,-514.54 1947.54,-521.54"/>
<text text-anchor="middle" x="1948.76" y="-489.59" font-family="Helvetica,sans-Serif" font-size="32.00" fill="#29235c">1</text>
<text text-anchor="middle" x="1745.59" y="-78.59" font-family="Helvetica,sans-Serif" font-size="32.00" fill="#29235c">*</text>
</g>
<!-- inspection -->
<g id="inspection" class="node">
<title>inspection</title>
<ellipse fill="none" stroke="black" stroke-width="0" cx="944.63" cy="-1049.39" rx="275.13" ry="299.63"/>
<polygon fill="#1d71b8" stroke="transparent" points="752.63,-1199.39 752.63,-1259.39 1137.63,-1259.39 1137.63,-1199.39 752.63,-1199.39"/>
<polygon fill="none" stroke="#29235c" points="752.63,-1199.39 752.63,-1259.39 1137.63,-1259.39 1137.63,-1199.39 752.63,-1199.39"/>
<text text-anchor="start" x="810.86" y="-1220.59" font-family="Helvetica,sans-Serif" font-weight="bold" font-size="32.00" fill="#ffffff"> &#160;&#160;&#160;&#160;&#160;&#160;inspection &#160;&#160;&#160;&#160;&#160;&#160;</text>
<polygon fill="#e7e2dd" stroke="transparent" points="752.63,-1139.39 752.63,-1199.39 1137.63,-1199.39 1137.63,-1139.39 752.63,-1139.39"/>
<polygon fill="none" stroke="#29235c" points="752.63,-1139.39 752.63,-1199.39 1137.63,-1199.39 1137.63,-1139.39 752.63,-1139.39"/>
<text text-anchor="start" x="763.63" y="-1160.59" font-family="Helvetica,sans-Serif" font-weight="bold" font-size="32.00" fill="#29235c">inspection_id</text>
<text text-anchor="start" x="950.35" y="-1160.59" font-family="Helvetica,sans-Serif" font-size="32.00" fill="#29235c"> &#160;&#160;&#160;</text>
<text text-anchor="start" x="989.74" y="-1160.59" font-family="Helvetica,sans-Serif" font-style="italic" font-size="32.00" fill="#29235c">integer</text>
<text text-anchor="start" x="1087.54" y="-1160.59" font-family="Helvetica,sans-Serif" font-size="32.00" fill="#29235c"> </text>
<text text-anchor="start" x="1096.43" y="-1160.59" font-family="Helvetica,sans-Serif" font-weight="bold" font-size="32.00" fill="#29235c">(!)</text>
<polygon fill="#e7e2dd" stroke="transparent" points="752.63,-1079.39 752.63,-1139.39 1137.63,-1139.39 1137.63,-1079.39 752.63,-1079.39"/>
<polygon fill="none" stroke="#29235c" points="752.63,-1079.39 752.63,-1139.39 1137.63,-1139.39 1137.63,-1079.39 752.63,-1079.39"/>
<text text-anchor="start" x="763.63" y="-1099.59" font-family="Helvetica,sans-Serif" font-size="32.00" fill="#29235c">location_id &#160;&#160;&#160;</text>
<text text-anchor="start" x="989.74" y="-1100.59" font-family="Helvetica,sans-Serif" font-style="italic" font-size="32.00" fill="#29235c">integer</text>
<text text-anchor="start" x="1087.54" y="-1100.59" font-family="Helvetica,sans-Serif" font-size="32.00" fill="#29235c"> </text>
<text text-anchor="start" x="1096.43" y="-1100.59" font-family="Helvetica,sans-Serif" font-weight="bold" font-size="32.00" fill="#29235c">(!)</text>
<polygon fill="#e7e2dd" stroke="transparent" points="752.63,-1019.39 752.63,-1079.39 1137.63,-1079.39 1137.63,-1019.39 752.63,-1019.39"/>
<polygon fill="none" stroke="#29235c" points="752.63,-1019.39 752.63,-1079.39 1137.63,-1079.39 1137.63,-1019.39 752.63,-1019.39"/>
<text text-anchor="start" x="763.63" y="-1039.59" font-family="Helvetica,sans-Serif" font-size="32.00" fill="#29235c">result_id &#160;&#160;&#160;</text>
<text text-anchor="start" x="989.74" y="-1040.59" font-family="Helvetica,sans-Serif" font-style="italic" font-size="32.00" fill="#29235c">integer</text>
<text text-anchor="start" x="1087.54" y="-1040.59" font-family="Helvetica,sans-Serif" font-size="32.00" fill="#29235c"> </text>
<text text-anchor="start" x="1096.43" y="-1040.59" font-family="Helvetica,sans-Serif" font-weight="bold" font-size="32.00" fill="#29235c">(!)</text>
<polygon fill="#e7e2dd" stroke="transparent" points="752.63,-959.39 752.63,-1019.39 1137.63,-1019.39 1137.63,-959.39 752.63,-959.39"/>
<polygon fill="none" stroke="#29235c" points="752.63,-959.39 752.63,-1019.39 1137.63,-1019.39 1137.63,-959.39 752.63,-959.39"/>
<text text-anchor="start" x="763.32" y="-979.59" font-family="Helvetica,sans-Serif" font-size="32.00" fill="#29235c">equipment_id &#160;&#160;&#160;</text>
<text text-anchor="start" x="990.19" y="-980.59" font-family="Helvetica,sans-Serif" font-style="italic" font-size="32.00" fill="#29235c">integer</text>
<text text-anchor="start" x="1087.99" y="-980.59" font-family="Helvetica,sans-Serif" font-size="32.00" fill="#29235c"> </text>
<text text-anchor="start" x="1096.88" y="-980.59" font-family="Helvetica,sans-Serif" font-weight="bold" font-size="32.00" fill="#29235c">(!)</text>
<polygon fill="#e7e2dd" stroke="transparent" points="752.63,-899.39 752.63,-959.39 1137.63,-959.39 1137.63,-899.39 752.63,-899.39"/>
<polygon fill="none" stroke="#29235c" points="752.63,-899.39 752.63,-959.39 1137.63,-959.39 1137.63,-899.39 752.63,-899.39"/>
<text text-anchor="start" x="763.63" y="-919.59" font-family="Helvetica,sans-Serif" font-size="32.00" fill="#29235c">created_at &#160;&#160;&#160;</text>
<text text-anchor="start" x="989.74" y="-920.59" font-family="Helvetica,sans-Serif" font-style="italic" font-size="32.00" fill="#29235c">integer</text>
<text text-anchor="start" x="1087.54" y="-920.59" font-family="Helvetica,sans-Serif" font-size="32.00" fill="#29235c"> </text>
<text text-anchor="start" x="1096.43" y="-920.59" font-family="Helvetica,sans-Serif" font-weight="bold" font-size="32.00" fill="#29235c">(!)</text>
<polygon fill="#e7e2dd" stroke="transparent" points="752.63,-839.39 752.63,-899.39 1137.63,-899.39 1137.63,-839.39 752.63,-839.39"/>
<polygon fill="none" stroke="#29235c" points="752.63,-839.39 752.63,-899.39 1137.63,-899.39 1137.63,-839.39 752.63,-839.39"/>
<text text-anchor="start" x="763.63" y="-859.59" font-family="Helvetica,sans-Serif" font-size="32.00" fill="#29235c">updated_at &#160;&#160;&#160;</text>
<text text-anchor="start" x="989.74" y="-860.59" font-family="Helvetica,sans-Serif" font-style="italic" font-size="32.00" fill="#29235c">integer</text>
<text text-anchor="start" x="1087.54" y="-860.59" font-family="Helvetica,sans-Serif" font-size="32.00" fill="#29235c"> </text>
<text text-anchor="start" x="1096.43" y="-860.59" font-family="Helvetica,sans-Serif" font-weight="bold" font-size="32.00" fill="#29235c">(!)</text>
<polygon fill="none" stroke="#29235c" stroke-width="2" points="751.13,-838.39 751.13,-1260.39 1138.13,-1260.39 1138.13,-838.39 751.13,-838.39"/>
</g>
<!-- inspection&#45;&gt;equipment -->
<!-- inspection&#45;&gt;equipment -->
<g id="edge8" class="edge">
<title>inspection:e&#45;&gt;equipment:w</title>
<path fill="none" stroke="#29235c" stroke-width="3" d="M1138.63,-989.39C1284.87,-989.39 1197.93,-377.13 1333.24,-348.43"/>
<polygon fill="#29235c" stroke="#29235c" stroke-width="3" points="1333.78,-351.89 1343.37,-347.39 1333.06,-344.93 1333.78,-351.89"/>
<text text-anchor="middle" x="1352.26" y="-318.59" font-family="Helvetica,sans-Serif" font-size="32.00" fill="#29235c">1</text>
<text text-anchor="middle" x="1144.85" y="-998.99" font-family="Helvetica,sans-Serif" font-size="32.00" fill="#29235c">*</text>
</g>
<!-- location -->
<g id="location" class="node">
<title>location</title>
<ellipse fill="none" stroke="black" stroke-width="0" cx="1541.37" cy="-1704.39" rx="247.47" ry="299.63"/>
<polygon fill="#1d71b8" stroke="transparent" points="1368.37,-1854.39 1368.37,-1914.39 1714.37,-1914.39 1714.37,-1854.39 1368.37,-1854.39"/>
<polygon fill="none" stroke="#29235c" points="1368.37,-1854.39 1368.37,-1914.39 1714.37,-1914.39 1714.37,-1854.39 1368.37,-1854.39"/>
<text text-anchor="start" x="1423.99" y="-1875.59" font-family="Helvetica,sans-Serif" font-weight="bold" font-size="32.00" fill="#ffffff"> &#160;&#160;&#160;&#160;&#160;&#160;location &#160;&#160;&#160;&#160;&#160;&#160;</text>
<polygon fill="#e7e2dd" stroke="transparent" points="1368.37,-1794.39 1368.37,-1854.39 1714.37,-1854.39 1714.37,-1794.39 1368.37,-1794.39"/>
<polygon fill="none" stroke="#29235c" points="1368.37,-1794.39 1368.37,-1854.39 1714.37,-1854.39 1714.37,-1794.39 1368.37,-1794.39"/>
<text text-anchor="start" x="1379.12" y="-1815.59" font-family="Helvetica,sans-Serif" font-weight="bold" font-size="32.00" fill="#29235c">location_id</text>
<text text-anchor="start" x="1532.05" y="-1815.59" font-family="Helvetica,sans-Serif" font-size="32.00" fill="#29235c"> &#160;&#160;&#160;</text>
<text text-anchor="start" x="1566.92" y="-1815.59" font-family="Helvetica,sans-Serif" font-style="italic" font-size="32.00" fill="#29235c">integer</text>
<text text-anchor="start" x="1664.72" y="-1815.59" font-family="Helvetica,sans-Serif" font-size="32.00" fill="#29235c"> </text>
<text text-anchor="start" x="1673.62" y="-1815.59" font-family="Helvetica,sans-Serif" font-weight="bold" font-size="32.00" fill="#29235c">(!)</text>
<polygon fill="#e7e2dd" stroke="transparent" points="1368.37,-1734.39 1368.37,-1794.39 1714.37,-1794.39 1714.37,-1734.39 1368.37,-1734.39"/>
<polygon fill="none" stroke="#29235c" points="1368.37,-1734.39 1368.37,-1794.39 1714.37,-1794.39 1714.37,-1734.39 1368.37,-1734.39"/>
<text text-anchor="start" x="1379.37" y="-1754.59" font-family="Helvetica,sans-Serif" font-size="32.00" fill="#29235c">asset_name &#160;&#160;&#160;</text>
<text text-anchor="start" x="1612.7" y="-1755.59" font-family="Helvetica,sans-Serif" font-style="italic" font-size="32.00" fill="#29235c">text</text>
<text text-anchor="start" x="1664.28" y="-1755.59" font-family="Helvetica,sans-Serif" font-size="32.00" fill="#29235c"> </text>
<text text-anchor="start" x="1673.17" y="-1755.59" font-family="Helvetica,sans-Serif" font-weight="bold" font-size="32.00" fill="#29235c">(!)</text>
<polygon fill="#e7e2dd" stroke="transparent" points="1368.37,-1674.39 1368.37,-1734.39 1714.37,-1734.39 1714.37,-1674.39 1368.37,-1674.39"/>
<polygon fill="none" stroke="#29235c" points="1368.37,-1674.39 1368.37,-1734.39 1714.37,-1734.39 1714.37,-1674.39 1368.37,-1674.39"/>
<text text-anchor="start" x="1379.37" y="-1694.59" font-family="Helvetica,sans-Serif" font-size="32.00" fill="#29235c">component &#160;&#160;&#160;</text>
<text text-anchor="start" x="1612.7" y="-1695.59" font-family="Helvetica,sans-Serif" font-style="italic" font-size="32.00" fill="#29235c">text</text>
<text text-anchor="start" x="1664.28" y="-1695.59" font-family="Helvetica,sans-Serif" font-size="32.00" fill="#29235c"> </text>
<text text-anchor="start" x="1673.17" y="-1695.59" font-family="Helvetica,sans-Serif" font-weight="bold" font-size="32.00" fill="#29235c">(!)</text>
<polygon fill="#e7e2dd" stroke="transparent" points="1368.37,-1614.39 1368.37,-1674.39 1714.37,-1674.39 1714.37,-1614.39 1368.37,-1614.39"/>
<polygon fill="none" stroke="#29235c" points="1368.37,-1614.39 1368.37,-1674.39 1714.37,-1674.39 1714.37,-1614.39 1368.37,-1614.39"/>
<text text-anchor="start" x="1379.37" y="-1634.59" font-family="Helvetica,sans-Serif" font-size="32.00" fill="#29235c">item_id &#160;&#160;&#160;</text>
<text text-anchor="start" x="1612.7" y="-1635.59" font-family="Helvetica,sans-Serif" font-style="italic" font-size="32.00" fill="#29235c">text</text>
<text text-anchor="start" x="1664.28" y="-1635.59" font-family="Helvetica,sans-Serif" font-size="32.00" fill="#29235c"> </text>
<text text-anchor="start" x="1673.17" y="-1635.59" font-family="Helvetica,sans-Serif" font-weight="bold" font-size="32.00" fill="#29235c">(!)</text>
<polygon fill="#e7e2dd" stroke="transparent" points="1368.37,-1554.39 1368.37,-1614.39 1714.37,-1614.39 1714.37,-1554.39 1368.37,-1554.39"/>
<polygon fill="none" stroke="#29235c" points="1368.37,-1554.39 1368.37,-1614.39 1714.37,-1614.39 1714.37,-1554.39 1368.37,-1554.39"/>
<text text-anchor="start" x="1379.37" y="-1574.59" font-family="Helvetica,sans-Serif" font-size="32.00" fill="#29235c">position &#160;&#160;&#160;</text>
<text text-anchor="start" x="1651.79" y="-1575.59" font-family="Helvetica,sans-Serif" font-style="italic" font-size="32.00" fill="#29235c">text</text>
<polygon fill="#e7e2dd" stroke="transparent" points="1368.37,-1494.39 1368.37,-1554.39 1714.37,-1554.39 1714.37,-1494.39 1368.37,-1494.39"/>
<polygon fill="none" stroke="#29235c" points="1368.37,-1494.39 1368.37,-1554.39 1714.37,-1554.39 1714.37,-1494.39 1368.37,-1494.39"/>
<text text-anchor="start" x="1379.37" y="-1514.59" font-family="Helvetica,sans-Serif" font-size="32.00" fill="#29235c">created_at &#160;&#160;&#160;</text>
<text text-anchor="start" x="1566.48" y="-1515.59" font-family="Helvetica,sans-Serif" font-style="italic" font-size="32.00" fill="#29235c">integer</text>
<text text-anchor="start" x="1664.28" y="-1515.59" font-family="Helvetica,sans-Serif" font-size="32.00" fill="#29235c"> </text>
<text text-anchor="start" x="1673.17" y="-1515.59" font-family="Helvetica,sans-Serif" font-weight="bold" font-size="32.00" fill="#29235c">(!)</text>
<polygon fill="none" stroke="#29235c" stroke-width="2" points="1367.37,-1493.39 1367.37,-1915.39 1715.37,-1915.39 1715.37,-1493.39 1367.37,-1493.39"/>
</g>
<!-- inspection&#45;&gt;location -->
<!-- inspection&#45;&gt;location -->
<g id="edge4" class="edge">
<title>inspection:e&#45;&gt;location:w</title>
<path fill="none" stroke="#29235c" stroke-width="3" d="M1138.63,-1109.39C1301.87,-1109.39 1204.93,-1793.99 1356.99,-1823.41"/>
<polygon fill="#29235c" stroke="#29235c" stroke-width="3" points="1357.08,-1826.94 1367.37,-1824.39 1357.74,-1819.97 1357.08,-1826.94"/>
<text text-anchor="middle" x="1376.26" y="-1833.99" font-family="Helvetica,sans-Serif" font-size="32.00" fill="#29235c">1</text>
<text text-anchor="middle" x="1144.85" y="-1118.99" font-family="Helvetica,sans-Serif" font-size="32.00" fill="#29235c">*</text>
</g>
<!-- result -->
<g id="result" class="node">
<title>result</title>
<ellipse fill="none" stroke="black" stroke-width="0" cx="1541.37" cy="-959.39" rx="285.84" ry="427.19"/>
<polygon fill="#1d71b8" stroke="transparent" points="1341.37,-1199.39 1341.37,-1259.39 1741.37,-1259.39 1741.37,-1199.39 1341.37,-1199.39"/>
<polygon fill="none" stroke="#29235c" points="1341.37,-1199.39 1341.37,-1259.39 1741.37,-1259.39 1741.37,-1199.39 1341.37,-1199.39"/>
<text text-anchor="start" x="1440.01" y="-1220.59" font-family="Helvetica,sans-Serif" font-weight="bold" font-size="32.00" fill="#ffffff"> &#160;&#160;&#160;&#160;&#160;&#160;result &#160;&#160;&#160;&#160;&#160;&#160;</text>
<polygon fill="#e7e2dd" stroke="transparent" points="1341.37,-1139.39 1341.37,-1199.39 1741.37,-1199.39 1741.37,-1139.39 1341.37,-1139.39"/>
<polygon fill="none" stroke="#29235c" points="1341.37,-1139.39 1341.37,-1199.39 1741.37,-1199.39 1741.37,-1139.39 1341.37,-1139.39"/>
<text text-anchor="start" x="1352.37" y="-1160.59" font-family="Helvetica,sans-Serif" font-weight="bold" font-size="32.00" fill="#29235c">result_id</text>
<text text-anchor="start" x="1473.27" y="-1160.59" font-family="Helvetica,sans-Serif" font-size="32.00" fill="#29235c"> &#160;&#160;&#160;</text>
<text text-anchor="start" x="1593.48" y="-1160.59" font-family="Helvetica,sans-Serif" font-style="italic" font-size="32.00" fill="#29235c">integer</text>
<text text-anchor="start" x="1691.28" y="-1160.59" font-family="Helvetica,sans-Serif" font-size="32.00" fill="#29235c"> </text>
<text text-anchor="start" x="1700.17" y="-1160.59" font-family="Helvetica,sans-Serif" font-weight="bold" font-size="32.00" fill="#29235c">(!)</text>
<polygon fill="#e7e2dd" stroke="transparent" points="1341.37,-1079.39 1341.37,-1139.39 1741.37,-1139.39 1741.37,-1079.39 1341.37,-1079.39"/>
<polygon fill="none" stroke="#29235c" points="1341.37,-1079.39 1341.37,-1139.39 1741.37,-1139.39 1741.37,-1079.39 1341.37,-1079.39"/>
<text text-anchor="start" x="1352.37" y="-1099.59" font-family="Helvetica,sans-Serif" font-size="32.00" fill="#29235c">method &#160;&#160;&#160;</text>
<text text-anchor="start" x="1639.7" y="-1100.59" font-family="Helvetica,sans-Serif" font-style="italic" font-size="32.00" fill="#29235c">text</text>
<text text-anchor="start" x="1691.28" y="-1100.59" font-family="Helvetica,sans-Serif" font-size="32.00" fill="#29235c"> </text>
<text text-anchor="start" x="1700.17" y="-1100.59" font-family="Helvetica,sans-Serif" font-weight="bold" font-size="32.00" fill="#29235c">(!)</text>
<polygon fill="#e7e2dd" stroke="transparent" points="1341.37,-1019.39 1341.37,-1079.39 1741.37,-1079.39 1741.37,-1019.39 1341.37,-1019.39"/>
<polygon fill="none" stroke="#29235c" points="1341.37,-1019.39 1341.37,-1079.39 1741.37,-1079.39 1741.37,-1019.39 1341.37,-1019.39"/>
<text text-anchor="start" x="1352.37" y="-1039.59" font-family="Helvetica,sans-Serif" font-size="32.00" fill="#29235c">result &#160;&#160;&#160;</text>
<text text-anchor="start" x="1639.7" y="-1040.59" font-family="Helvetica,sans-Serif" font-style="italic" font-size="32.00" fill="#29235c">text</text>
<text text-anchor="start" x="1691.28" y="-1040.59" font-family="Helvetica,sans-Serif" font-size="32.00" fill="#29235c"> </text>
<text text-anchor="start" x="1700.17" y="-1040.59" font-family="Helvetica,sans-Serif" font-weight="bold" font-size="32.00" fill="#29235c">(!)</text>
<polygon fill="#e7e2dd" stroke="transparent" points="1341.37,-959.39 1341.37,-1019.39 1741.37,-1019.39 1741.37,-959.39 1341.37,-959.39"/>
<polygon fill="none" stroke="#29235c" points="1341.37,-959.39 1341.37,-1019.39 1741.37,-1019.39 1741.37,-959.39 1341.37,-959.39"/>
<text text-anchor="start" x="1352.37" y="-979.59" font-family="Helvetica,sans-Serif" font-size="32.00" fill="#29235c">remarks &#160;&#160;&#160;</text>
<text text-anchor="start" x="1678.79" y="-980.59" font-family="Helvetica,sans-Serif" font-style="italic" font-size="32.00" fill="#29235c">text</text>
<polygon fill="#e7e2dd" stroke="transparent" points="1341.37,-899.39 1341.37,-959.39 1741.37,-959.39 1741.37,-899.39 1341.37,-899.39"/>
<polygon fill="none" stroke="#29235c" points="1341.37,-899.39 1341.37,-959.39 1741.37,-959.39 1741.37,-899.39 1341.37,-899.39"/>
<text text-anchor="start" x="1352.37" y="-919.59" font-family="Helvetica,sans-Serif" font-size="32.00" fill="#29235c">ss_img_ori &#160;&#160;&#160;</text>
<text text-anchor="start" x="1678.79" y="-920.59" font-family="Helvetica,sans-Serif" font-style="italic" font-size="32.00" fill="#29235c">text</text>
<polygon fill="#e7e2dd" stroke="transparent" points="1341.37,-839.39 1341.37,-899.39 1741.37,-899.39 1741.37,-839.39 1341.37,-839.39"/>
<polygon fill="none" stroke="#29235c" points="1341.37,-839.39 1341.37,-899.39 1741.37,-899.39 1741.37,-839.39 1341.37,-839.39"/>
<text text-anchor="start" x="1352.3" y="-859.59" font-family="Helvetica,sans-Serif" font-size="32.00" fill="#29235c">ss_img_w_comment &#160;&#160;&#160;</text>
<text text-anchor="start" x="1679.08" y="-860.59" font-family="Helvetica,sans-Serif" font-style="italic" font-size="32.00" fill="#29235c">text</text>
<polygon fill="#e7e2dd" stroke="transparent" points="1341.37,-779.39 1341.37,-839.39 1741.37,-839.39 1741.37,-779.39 1341.37,-779.39"/>
<polygon fill="none" stroke="#29235c" points="1341.37,-779.39 1341.37,-839.39 1741.37,-839.39 1741.37,-779.39 1341.37,-779.39"/>
<text text-anchor="start" x="1352.37" y="-799.59" font-family="Helvetica,sans-Serif" font-size="32.00" fill="#29235c">created_at &#160;&#160;&#160;</text>
<text text-anchor="start" x="1593.48" y="-800.59" font-family="Helvetica,sans-Serif" font-style="italic" font-size="32.00" fill="#29235c">integer</text>
<text text-anchor="start" x="1691.28" y="-800.59" font-family="Helvetica,sans-Serif" font-size="32.00" fill="#29235c"> </text>
<text text-anchor="start" x="1700.17" y="-800.59" font-family="Helvetica,sans-Serif" font-weight="bold" font-size="32.00" fill="#29235c">(!)</text>
<polygon fill="#e7e2dd" stroke="transparent" points="1341.37,-719.39 1341.37,-779.39 1741.37,-779.39 1741.37,-719.39 1341.37,-719.39"/>
<polygon fill="none" stroke="#29235c" points="1341.37,-719.39 1341.37,-779.39 1741.37,-779.39 1741.37,-719.39 1341.37,-719.39"/>
<text text-anchor="start" x="1352.37" y="-739.59" font-family="Helvetica,sans-Serif" font-size="32.00" fill="#29235c">updated_at &#160;&#160;&#160;</text>
<text text-anchor="start" x="1632.57" y="-740.59" font-family="Helvetica,sans-Serif" font-style="italic" font-size="32.00" fill="#29235c">integer</text>
<polygon fill="#e7e2dd" stroke="transparent" points="1341.37,-659.39 1341.37,-719.39 1741.37,-719.39 1741.37,-659.39 1341.37,-659.39"/>
<polygon fill="none" stroke="#29235c" points="1341.37,-659.39 1341.37,-719.39 1741.37,-719.39 1741.37,-659.39 1341.37,-659.39"/>
<text text-anchor="start" x="1352.37" y="-679.59" font-family="Helvetica,sans-Serif" font-size="32.00" fill="#29235c">tooling_id &#160;&#160;&#160;</text>
<text text-anchor="start" x="1632.57" y="-680.59" font-family="Helvetica,sans-Serif" font-style="italic" font-size="32.00" fill="#29235c">integer</text>
<polygon fill="none" stroke="#29235c" stroke-width="2" points="1340.37,-658.39 1340.37,-1260.39 1742.37,-1260.39 1742.37,-658.39 1340.37,-658.39"/>
</g>
<!-- inspection&#45;&gt;result -->
<!-- inspection&#45;&gt;result -->
<g id="edge6" class="edge">
<title>inspection:e&#45;&gt;result:w</title>
<path fill="none" stroke="#29235c" stroke-width="3" d="M1138.63,-1049.39C1239.49,-1049.39 1236.38,-1161.55 1330.34,-1169"/>
<polygon fill="#29235c" stroke="#29235c" stroke-width="3" points="1330.24,-1172.5 1340.37,-1169.39 1330.51,-1165.5 1330.24,-1172.5"/>
<text text-anchor="middle" x="1349.26" y="-1178.99" font-family="Helvetica,sans-Serif" font-size="32.00" fill="#29235c">1</text>
<text text-anchor="middle" x="1144.85" y="-1058.99" font-family="Helvetica,sans-Serif" font-size="32.00" fill="#29235c">*</text>
</g>
<!-- project -->
<g id="project" class="node">
<title>project</title>
<ellipse fill="none" stroke="black" stroke-width="0" cx="316.78" cy="-989.39" rx="316.57" ry="384.83"/>
<polygon fill="#1d71b8" stroke="transparent" points="94.78,-1199.39 94.78,-1259.39 538.78,-1259.39 538.78,-1199.39 94.78,-1199.39"/>
<polygon fill="none" stroke="#29235c" points="94.78,-1199.39 94.78,-1259.39 538.78,-1259.39 538.78,-1199.39 94.78,-1199.39"/>
<text text-anchor="start" x="206.53" y="-1220.59" font-family="Helvetica,sans-Serif" font-weight="bold" font-size="32.00" fill="#ffffff"> &#160;&#160;&#160;&#160;&#160;&#160;project &#160;&#160;&#160;&#160;&#160;&#160;</text>
<polygon fill="#e7e2dd" stroke="transparent" points="94.78,-1139.39 94.78,-1199.39 538.78,-1199.39 538.78,-1139.39 94.78,-1139.39"/>
<polygon fill="none" stroke="#29235c" points="94.78,-1139.39 94.78,-1199.39 538.78,-1199.39 538.78,-1139.39 94.78,-1139.39"/>
<text text-anchor="start" x="105.78" y="-1160.59" font-family="Helvetica,sans-Serif" font-weight="bold" font-size="32.00" fill="#29235c">project_id</text>
<text text-anchor="start" x="244.48" y="-1160.59" font-family="Helvetica,sans-Serif" font-size="32.00" fill="#29235c"> &#160;&#160;&#160;</text>
<text text-anchor="start" x="390.89" y="-1160.59" font-family="Helvetica,sans-Serif" font-style="italic" font-size="32.00" fill="#29235c">integer</text>
<text text-anchor="start" x="488.69" y="-1160.59" font-family="Helvetica,sans-Serif" font-size="32.00" fill="#29235c"> </text>
<text text-anchor="start" x="497.59" y="-1160.59" font-family="Helvetica,sans-Serif" font-weight="bold" font-size="32.00" fill="#29235c">(!)</text>
<polygon fill="#e7e2dd" stroke="transparent" points="94.78,-1079.39 94.78,-1139.39 538.78,-1139.39 538.78,-1079.39 94.78,-1079.39"/>
<polygon fill="none" stroke="#29235c" points="94.78,-1079.39 94.78,-1139.39 538.78,-1139.39 538.78,-1079.39 94.78,-1079.39"/>
<text text-anchor="start" x="105.78" y="-1099.59" font-family="Helvetica,sans-Serif" font-size="32.00" fill="#29235c">project_title &#160;&#160;&#160;</text>
<text text-anchor="start" x="437.12" y="-1100.59" font-family="Helvetica,sans-Serif" font-style="italic" font-size="32.00" fill="#29235c">text</text>
<text text-anchor="start" x="488.69" y="-1100.59" font-family="Helvetica,sans-Serif" font-size="32.00" fill="#29235c"> </text>
<text text-anchor="start" x="497.59" y="-1100.59" font-family="Helvetica,sans-Serif" font-weight="bold" font-size="32.00" fill="#29235c">(!)</text>
<polygon fill="#e7e2dd" stroke="transparent" points="94.78,-1019.39 94.78,-1079.39 538.78,-1079.39 538.78,-1019.39 94.78,-1019.39"/>
<polygon fill="none" stroke="#29235c" points="94.78,-1019.39 94.78,-1079.39 538.78,-1079.39 538.78,-1019.39 94.78,-1019.39"/>
<text text-anchor="start" x="105.45" y="-1039.59" font-family="Helvetica,sans-Serif" font-size="32.00" fill="#29235c">document_reference_id &#160;&#160;&#160;</text>
<text text-anchor="start" x="476.5" y="-1040.59" font-family="Helvetica,sans-Serif" font-style="italic" font-size="32.00" fill="#29235c">text</text>
<polygon fill="#e7e2dd" stroke="transparent" points="94.78,-959.39 94.78,-1019.39 538.78,-1019.39 538.78,-959.39 94.78,-959.39"/>
<polygon fill="none" stroke="#29235c" points="94.78,-959.39 94.78,-1019.39 538.78,-1019.39 538.78,-959.39 94.78,-959.39"/>
<text text-anchor="start" x="105.78" y="-979.59" font-family="Helvetica,sans-Serif" font-size="32.00" fill="#29235c">description &#160;&#160;&#160;</text>
<text text-anchor="start" x="476.21" y="-980.59" font-family="Helvetica,sans-Serif" font-style="italic" font-size="32.00" fill="#29235c">text</text>
<polygon fill="#e7e2dd" stroke="transparent" points="94.78,-899.39 94.78,-959.39 538.78,-959.39 538.78,-899.39 94.78,-899.39"/>
<polygon fill="none" stroke="#29235c" points="94.78,-899.39 94.78,-959.39 538.78,-959.39 538.78,-899.39 94.78,-899.39"/>
<text text-anchor="start" x="105.78" y="-919.59" font-family="Helvetica,sans-Serif" font-size="32.00" fill="#29235c">status &#160;&#160;&#160;</text>
<text text-anchor="start" x="429.98" y="-920.59" font-family="Helvetica,sans-Serif" font-style="italic" font-size="32.00" fill="#29235c">integer</text>
<polygon fill="#e7e2dd" stroke="transparent" points="94.78,-839.39 94.78,-899.39 538.78,-899.39 538.78,-839.39 94.78,-839.39"/>
<polygon fill="none" stroke="#29235c" points="94.78,-839.39 94.78,-899.39 538.78,-899.39 538.78,-839.39 94.78,-839.39"/>
<text text-anchor="start" x="105.78" y="-859.59" font-family="Helvetica,sans-Serif" font-size="32.00" fill="#29235c">created_at &#160;&#160;&#160;</text>
<text text-anchor="start" x="390.89" y="-860.59" font-family="Helvetica,sans-Serif" font-style="italic" font-size="32.00" fill="#29235c">integer</text>
<text text-anchor="start" x="488.69" y="-860.59" font-family="Helvetica,sans-Serif" font-size="32.00" fill="#29235c"> </text>
<text text-anchor="start" x="497.59" y="-860.59" font-family="Helvetica,sans-Serif" font-weight="bold" font-size="32.00" fill="#29235c">(!)</text>
<polygon fill="#e7e2dd" stroke="transparent" points="94.78,-779.39 94.78,-839.39 538.78,-839.39 538.78,-779.39 94.78,-779.39"/>
<polygon fill="none" stroke="#29235c" points="94.78,-779.39 94.78,-839.39 538.78,-839.39 538.78,-779.39 94.78,-779.39"/>
<text text-anchor="start" x="105.78" y="-799.59" font-family="Helvetica,sans-Serif" font-size="32.00" fill="#29235c">inspection_id &#160;&#160;&#160;</text>
<text text-anchor="start" x="429.98" y="-800.59" font-family="Helvetica,sans-Serif" font-style="italic" font-size="32.00" fill="#29235c">integer</text>
<polygon fill="#e7e2dd" stroke="transparent" points="94.78,-719.39 94.78,-779.39 538.78,-779.39 538.78,-719.39 94.78,-719.39"/>
<polygon fill="none" stroke="#29235c" points="94.78,-719.39 94.78,-779.39 538.78,-779.39 538.78,-719.39 94.78,-719.39"/>
<text text-anchor="start" x="105.78" y="-739.59" font-family="Helvetica,sans-Serif" font-size="32.00" fill="#29235c">updated_at &#160;&#160;&#160;</text>
<text text-anchor="start" x="390.89" y="-740.59" font-family="Helvetica,sans-Serif" font-style="italic" font-size="32.00" fill="#29235c">integer</text>
<text text-anchor="start" x="488.69" y="-740.59" font-family="Helvetica,sans-Serif" font-size="32.00" fill="#29235c"> </text>
<text text-anchor="start" x="497.59" y="-740.59" font-family="Helvetica,sans-Serif" font-weight="bold" font-size="32.00" fill="#29235c">(!)</text>
<polygon fill="none" stroke="#29235c" stroke-width="2" points="93.78,-718.39 93.78,-1260.39 539.78,-1260.39 539.78,-718.39 93.78,-718.39"/>
</g>
<!-- project&#45;&gt;inspection -->
<!-- project&#45;&gt;inspection -->
<g id="edge10" class="edge">
<title>project:e&#45;&gt;inspection:w</title>
<path fill="none" stroke="#29235c" stroke-width="3" d="M539.78,-809.39C721.9,-809.39 571.93,-1155.81 741.4,-1169"/>
<polygon fill="#29235c" stroke="#29235c" stroke-width="3" points="741.51,-1172.51 751.63,-1169.39 741.77,-1165.51 741.51,-1172.51"/>
<text text-anchor="middle" x="742.74" y="-1178.99" font-family="Helvetica,sans-Serif" font-size="32.00" fill="#29235c">1</text>
<text text-anchor="middle" x="533.56" y="-818.99" font-family="Helvetica,sans-Serif" font-size="32.00" fill="#29235c">*</text>
</g>
<!-- result&#45;&gt;tooling -->
<!-- result&#45;&gt;tooling -->
<g id="edge12" class="edge">
<title>result:e&#45;&gt;tooling:w</title>
<path fill="none" stroke="#29235c" stroke-width="3" d="M1742.37,-689.39C1861.1,-689.39 1836.99,-527.94 1947.63,-518.79"/>
<polygon fill="#29235c" stroke="#29235c" stroke-width="3" points="1947.8,-522.29 1957.65,-518.39 1947.52,-515.29 1947.8,-522.29"/>
<text text-anchor="middle" x="1966.55" y="-489.59" font-family="Helvetica,sans-Serif" font-size="32.00" fill="#29235c">1</text>
<text text-anchor="middle" x="1748.59" y="-698.99" font-family="Helvetica,sans-Serif" font-size="32.00" fill="#29235c">*</text>
</g>
</g>
</svg>
